<svg width="16" height="21" viewBox="0 0 16 21" fill="none" xmlns="http://www.w3.org/2000/svg">
<path d="M12.6171 0.884848C9.71556 0.39841 6.73762 0.39841 3.83606 0.884849C2.77602 1.06256 1.93183 1.87636 1.71928 2.93154C0.745572 7.76554 0.692444 12.7398 1.56268 17.5935L1.91699 19.5696C2.02624 20.179 2.76908 20.4225 3.21789 19.9961L7.49455 15.9333C7.90477 15.5436 8.54841 15.5436 8.95864 15.9333L13.2353 19.9961C13.6841 20.4225 14.4269 20.179 14.5362 19.5696L14.8905 17.5935C15.7607 12.7398 15.7076 7.76554 14.7339 2.93154C14.5214 1.87636 13.6772 1.06256 12.6171 0.884848Z" fill="#6C5FBC"/>
</svg>
